<?xml version="1.0" encoding="UTF-8" standalone="no"?>
<svg xmlns="http://www.w3.org/2000/svg" width="1600" height="900" viewBox="0 0 1600 900">
  <defs>
    <linearGradient id="bggrad" x1="0" x2="1" y1="0" y2="1">
      <stop offset="0%" stop-color="#0ea5e9"/>
      <stop offset="100%" stop-color="#8b5cf6"/>
    </linearGradient>
    <filter id="softShadow" x="-20%" y="-20%" width="140%" height="140%">
      <feDropShadow dx="0" dy="8" stdDeviation="12" flood-color="#000000" flood-opacity="0.25"/>
    </filter>
    <style><![CDATA[
      .title { font-family: -apple-system,BlinkMacSystemFont,Segoe UI,Roboto,Ubuntu,Cantarell,'Helvetica Neue',Arial,sans-serif; font-weight:700; fill:#ffffff; }
      .subtitle { font-family: -apple-system,BlinkMacSystemFont,Segoe UI,Roboto,Ubuntu,Cantarell,'Helvetica Neue',Arial,sans-serif; font-weight:500; fill:#e5e7eb; }
      .label { font-family: ui-monospace, SFMono-Regular, Menlo, Monaco, Consolas, 'Liberation Mono','Courier New', monospace; font-weight:700; fill:#111827; }
      .chipText { font-family: ui-monospace, SFMono-Regular, Menlo, Monaco, Consolas, 'Liberation Mono','Courier New', monospace; fill:#111827; font-weight:700; }
    ]]></style>
  </defs>

  <rect x="0" y="0" width="1600" height="900" fill="url(#bggrad)"/>

  <g opacity="0.12" stroke="#ffffff" stroke-width="2" fill="none">
    <path d="M120 160 h260 v120 h220 v-80 h260 v140 h220 v-60 h260" />
    <path d="M120 300 h200 v80 h260 v-60 h220 v100 h260 v-40 h260" />
    <path d="M120 460 h300 v60 h200 v-40 h300 v120 h180 v-80 h280" />
  </g>

  <text x="80" y="150" class="title" font-size="56">Bootloaders in Automotive</text>
  <text x="80" y="205" class="subtitle" font-size="28">first to run • last line of defense • fast, secure, recoverable</text>

  <g transform="translate(80,520)" filter="url(#softShadow)">
    <path d="M60 40 C 120 -20, 320 -20, 380 40 L 560 40 C 600 40, 620 60, 620 90 
             L 620 120 L 40 120 L 40 90 C 40 60, 50 50, 60 40 Z" fill="#111827" opacity="0.85"/>
    <circle cx="140" cy="120" r="38" fill="#0ea5e9"/>
    <circle cx="140" cy="120" r="22" fill="#111827"/>
    <circle cx="500" cy="120" r="38" fill="#0ea5e9"/>
    <circle cx="500" cy="120" r="22" fill="#111827"/>
    <circle cx="80" cy="82" r="8" fill="#fcd34d"/>
    <path d="M10 100 h-60" stroke="#e5e7eb" stroke-width="6" opacity="0.6"/>
    <path d="M10 115 h-40" stroke="#e5e7eb" stroke-width="4" opacity="0.4"/>
  </g>

  <g transform="translate(980,380)" filter="url(#softShadow)">
    <rect x="0" y="0" rx="20" ry="20" width="220" height="200" fill="#ffffff"/>
    <rect x="50" y="-70" rx="18" ry="18" width="120" height="70" fill="#ffffff"/>
    <circle cx="85" cy="-35" r="8" fill="#111827"/>
    <circle cx="135" cy="-35" r="8" fill="#111827"/>
    <line x1="110" y1="-70" x2="110" y2="-95" stroke="#111827" stroke-width="4"/>
    <circle cx="110" cy="-100" r="7" fill="#0ea5e9"/>
    <rect x="-40" y="30" rx="8" ry="8" width="40" height="20" fill="#ffffff"/>
    <rect x="220" y="30" rx="8" ry="8" width="40" height="20" fill="#ffffff"/>
    <g transform="translate(-65,20) rotate(-20)">
      <rect x="0" y="10" width="70" height="12" rx="6" fill="#111827"/>
      <path d="M62 6 a10 10 0 1 0 0 20 a10 10 0 1 0 0 -20" fill="#0ea5e9"/>
    </g>
    <g transform="translate(250,10) rotate(10)">
      <path d="M0 40 L40 10 L80 40 L60 100 L20 100 Z" fill="#0ea5e9" stroke="#111827" stroke-width="4"/>
      <path d="M40 35 v50" stroke="#111827" stroke-width="4"/>
    </g>
    <rect x="50" y="200" rx="8" ry="8" width="40" height="40" fill="#ffffff"/>
    <rect x="130" y="200" rx="8" ry="8" width="40" height="40" fill="#ffffff"/>
  </g>

  <g transform="translate(560,320)" filter="url(#softShadow)">
    <rect x="0" y="0" rx="16" ry="16" width="140" height="100" fill="#ffffff"/>
    <text x="70" y="60" text-anchor="middle" class="label" font-size="36">A</text>
  </g>
  <g transform="translate(750,320)" filter="url(#softShadow)">
    <rect x="0" y="0" rx="16" ry="16" width="140" height="100" fill="#ffffff"/>
    <text x="70" y="60" text-anchor="middle" class="label" font-size="36">B</text>
  </g>

  <g transform="translate(740,560)" filter="url(#softShadow)">
    <rect x="0" y="0" width="120" height="120" rx="16" ry="16" fill="#ffffff"/>
    <g stroke="#111827" stroke-width="6">
      <line x1="10" y1="20" x2="-20" y2="20"/>
      <line x1="10" y1="60" x2="-20" y2="60"/>
      <line x1="10" y1="100" x2="-20" y2="100"/>
      <line x1="110" y1="20" x2="140" y2="20"/>
      <line x1="110" y1="60" x2="140" y2="60"/>
      <line x1="110" y1="100" x2="140" y2="100"/>
      <line x1="20" y1="10" x2="20" y2="-20"/>
      <line x1="60" y1="10" x2="60" y2="-20"/>
      <line x1="100" y1="10" x2="100" y2="-20"/>
      <line x1="20" y1="110" x2="20" y2="140"/>
      <line x1="60" y1="110" x2="60" y2="140"/>
      <line x1="100" y1="110" x2="100" y2="140"/>
    </g>
    <text x="60" y="76" text-anchor="middle" class="chipText" font-size="22">RoT</text>
  </g>

  <g transform="translate(80,260)">
    <rect x="0" y="0" width="720" height="44" rx="8" ry="8" fill="#111827" opacity="0.35"/>
    <text x="16" y="30" class="subtitle" font-size="22">A/B fallback • Verified boot • Deterministic bring‑up • Fast handoff</text>
  </g>
</svg>
